<svg width="179" height="23" viewBox="0 0 179 23" fill="none" xmlns="http://www.w3.org/2000/svg">
<path d="M17.2592 17.2555H13.9077V5.25549C13.9077 5.02112 13.8608 4.80237 13.767 4.59924C13.6811 4.39612 13.56 4.22034 13.4037 4.0719C13.2553 3.91565 13.0795 3.79456 12.8764 3.70862C12.6733 3.62268 12.4545 3.57971 12.2202 3.57971C11.9858 3.57971 11.767 3.62268 11.5639 3.70862C11.3608 3.79456 11.1811 3.91565 11.0248 4.0719C10.8764 4.22034 10.7592 4.39612 10.6733 4.59924C10.5873 4.80237 10.5444 5.02112 10.5444 5.25549V17.2555H7.18109V5.25549C7.18109 5.02112 7.13812 4.80237 7.05219 4.59924C6.96625 4.39612 6.84515 4.22034 6.6889 4.0719C6.54047 3.91565 6.36469 3.79456 6.16156 3.70862C5.95844 3.62268 5.73969 3.57971 5.50531 3.57971C5.27094 3.57971 5.05219 3.62268 4.84906 3.70862C4.64594 3.79456 4.46625 3.91565 4.31 4.0719C4.16156 4.22034 4.04437 4.39612 3.95844 4.59924C3.8725 4.80237 3.82953 5.02112 3.82953 5.25549V17.2555H0.466248V5.25549C0.466248 4.56018 0.595154 3.90784 0.852966 3.29846C1.11859 2.68127 1.47797 2.14612 1.93109 1.69299C2.39203 1.23206 2.92719 0.872681 3.53656 0.614868C4.15375 0.349243 4.81 0.216431 5.50531 0.216431C6.13031 0.216431 6.73187 0.329712 7.31 0.556274C7.88812 0.775024 8.40765 1.09534 8.86859 1.51721C9.32953 1.09534 9.84515 0.775024 10.4155 0.556274C10.9936 0.329712 11.5952 0.216431 12.2202 0.216431C12.9155 0.216431 13.5678 0.349243 14.1772 0.614868C14.7944 0.872681 15.3295 1.23206 15.7827 1.69299C16.2436 2.14612 16.603 2.68127 16.8608 3.29846C17.1264 3.90784 17.2592 4.56018 17.2592 5.25549V17.2555ZM36.2628 17.2555H35.4894L34.2472 15.5328C33.9425 15.8063 33.6183 16.0641 33.2745 16.3063C32.9386 16.5406 32.5831 16.7477 32.2081 16.9274C31.8331 17.0992 31.4464 17.236 31.048 17.3375C30.6573 17.4391 30.2589 17.4899 29.8527 17.4899C28.9698 17.4899 28.1378 17.3414 27.3566 17.0446C26.5831 16.7477 25.9034 16.318 25.3175 15.7555C24.7394 15.1852 24.2823 14.4899 23.9464 13.6696C23.6105 12.8492 23.4425 11.9156 23.4425 10.8688C23.4425 9.89221 23.6105 8.99768 23.9464 8.18518C24.2823 7.36487 24.7394 6.66174 25.3175 6.07581C25.9034 5.48987 26.5831 5.03674 27.3566 4.71643C28.1378 4.38831 28.9698 4.22424 29.8527 4.22424C30.2589 4.22424 30.6612 4.27502 31.0597 4.37659C31.4581 4.47815 31.8448 4.61877 32.2198 4.79846C32.5948 4.97815 32.9503 5.18909 33.2862 5.43127C33.63 5.67346 33.9503 5.93518 34.2472 6.21643L35.4894 4.72815H36.2628V17.2555ZM33.0402 10.8688C33.0402 10.4313 32.9542 10.0094 32.7823 9.60315C32.6183 9.18909 32.3917 8.82581 32.1027 8.51331C31.8136 8.19299 31.4737 7.93909 31.0831 7.75159C30.7003 7.55627 30.2902 7.45862 29.8527 7.45862C29.4152 7.45862 29.0011 7.53284 28.6105 7.68127C28.2277 7.82971 27.8917 8.04846 27.6027 8.33752C27.3214 8.62659 27.0987 8.98596 26.9347 9.41565C26.7706 9.83752 26.6886 10.3219 26.6886 10.8688C26.6886 11.4156 26.7706 11.9039 26.9347 12.3336C27.0987 12.7555 27.3214 13.111 27.6027 13.4C27.8917 13.6891 28.2277 13.9078 28.6105 14.0563C29.0011 14.2047 29.4152 14.2789 29.8527 14.2789C30.2902 14.2789 30.7003 14.1852 31.0831 13.9977C31.4737 13.8024 31.8136 13.5485 32.1027 13.236C32.3917 12.9156 32.6183 12.5524 32.7823 12.1461C32.9542 11.7321 33.0402 11.3063 33.0402 10.8688ZM46.2312 17.2555H43.032V4.70471H43.8055L44.8602 5.92346C45.3758 5.45471 45.9578 5.09534 46.6062 4.84534C47.2625 4.58752 47.9461 4.45862 48.657 4.45862C49.4227 4.45862 50.1453 4.60706 50.825 4.90393C51.5047 5.19299 52.0984 5.59534 52.6062 6.11096C53.1141 6.61877 53.5125 7.21643 53.8016 7.90393C54.0984 8.58362 54.2469 9.31018 54.2469 10.0836V17.2555H51.0477V10.0836C51.0477 9.75549 50.9852 9.4469 50.8602 9.15784C50.7352 8.86096 50.5633 8.60315 50.3445 8.3844C50.1258 8.16565 49.8719 7.99377 49.5828 7.86877C49.2937 7.74377 48.9852 7.68127 48.657 7.68127C48.3211 7.68127 48.0047 7.74377 47.7078 7.86877C47.4109 7.99377 47.1531 8.16565 46.9344 8.3844C46.7156 8.60315 46.5437 8.86096 46.4187 9.15784C46.2937 9.4469 46.2312 9.75549 46.2312 10.0836V17.2555ZM69.7817 10.8688C69.7817 10.4313 69.6958 10.0094 69.5239 9.60315C69.3598 9.18909 69.1333 8.82581 68.8442 8.51331C68.5552 8.19299 68.2153 7.93909 67.8247 7.75159C67.4419 7.55627 67.0317 7.45862 66.5942 7.45862C66.1567 7.45862 65.7427 7.53284 65.352 7.68127C64.9692 7.82971 64.6333 8.04846 64.3442 8.33752C64.063 8.62659 63.8403 8.98596 63.6762 9.41565C63.5122 9.83752 63.4302 10.3219 63.4302 10.8688C63.4302 11.3922 63.5122 11.8649 63.6762 12.2867C63.8403 12.7008 64.063 13.0563 64.3442 13.3531C64.6333 13.65 64.9692 13.8805 65.352 14.0446C65.7427 14.2008 66.1567 14.2789 66.5942 14.2789C67.0317 14.2789 67.4419 14.1852 67.8247 13.9977C68.2153 13.8024 68.5552 13.5485 68.8442 13.236C69.1333 12.9156 69.3598 12.5524 69.5239 12.1461C69.6958 11.7321 69.7817 11.3063 69.7817 10.8688ZM73.0044 15.6735C73.0044 16.5563 72.8364 17.3844 72.5005 18.1578C72.1645 18.9313 71.7036 19.6071 71.1177 20.1852C70.5395 20.7633 69.8598 21.2203 69.0786 21.5563C68.3052 21.8922 67.477 22.0602 66.5942 22.0602L64.9887 22.0367V18.8375L66.5708 18.861C67.0708 18.861 67.4966 18.7946 67.8481 18.6617C68.1997 18.5367 68.4966 18.361 68.7387 18.1344C68.9809 17.9156 69.1723 17.6617 69.313 17.3727C69.4614 17.0836 69.5786 16.7789 69.6645 16.4586C69.5395 16.6617 69.3598 16.8297 69.1255 16.9625C68.8911 17.0875 68.6294 17.1891 68.3403 17.2672C68.0591 17.3531 67.7622 17.4117 67.4497 17.443C67.145 17.4742 66.8598 17.4899 66.5942 17.4899C65.7114 17.4899 64.8794 17.3375 64.0981 17.0328C63.3247 16.7281 62.645 16.2946 62.0591 15.7321C61.4809 15.1617 61.0239 14.4664 60.688 13.6461C60.352 12.8258 60.1841 11.9 60.1841 10.8688C60.1841 9.92346 60.352 9.04456 60.688 8.23206C61.0239 7.41956 61.4809 6.71643 62.0591 6.12268C62.645 5.52893 63.3247 5.06409 64.0981 4.72815C64.8794 4.39221 65.7114 4.22424 66.5942 4.22424C67.0005 4.22424 67.4028 4.27502 67.8012 4.37659C68.1997 4.47815 68.5864 4.61877 68.9614 4.79846C69.3364 4.97815 69.6919 5.18909 70.0278 5.43127C70.3716 5.67346 70.6919 5.93518 70.9887 6.21643L72.2309 4.72815H73.0044V15.6735ZM91.9259 17.2555H91.1525L89.9103 15.5328C89.6056 15.8063 89.2814 16.0641 88.9377 16.3063C88.6017 16.5406 88.2462 16.7477 87.8712 16.9274C87.4962 17.0992 87.1095 17.236 86.7111 17.3375C86.3205 17.4391 85.922 17.4899 85.5158 17.4899C84.633 17.4899 83.8009 17.3414 83.0197 17.0446C82.2462 16.7477 81.5666 16.318 80.9806 15.7555C80.4025 15.1852 79.9455 14.4899 79.6095 13.6696C79.2736 12.8492 79.1056 11.9156 79.1056 10.8688C79.1056 9.89221 79.2736 8.99768 79.6095 8.18518C79.9455 7.36487 80.4025 6.66174 80.9806 6.07581C81.5666 5.48987 82.2462 5.03674 83.0197 4.71643C83.8009 4.38831 84.633 4.22424 85.5158 4.22424C85.922 4.22424 86.3244 4.27502 86.7228 4.37659C87.1212 4.47815 87.508 4.61877 87.883 4.79846C88.258 4.97815 88.6134 5.18909 88.9494 5.43127C89.2931 5.67346 89.6134 5.93518 89.9103 6.21643L91.1525 4.72815H91.9259V17.2555ZM88.7033 10.8688C88.7033 10.4313 88.6173 10.0094 88.4455 9.60315C88.2814 9.18909 88.0548 8.82581 87.7658 8.51331C87.4767 8.19299 87.1369 7.93909 86.7462 7.75159C86.3634 7.55627 85.9533 7.45862 85.5158 7.45862C85.0783 7.45862 84.6642 7.53284 84.2736 7.68127C83.8908 7.82971 83.5548 8.04846 83.2658 8.33752C82.9845 8.62659 82.7619 8.98596 82.5978 9.41565C82.4337 9.83752 82.3517 10.3219 82.3517 10.8688C82.3517 11.4156 82.4337 11.9039 82.5978 12.3336C82.7619 12.7555 82.9845 13.111 83.2658 13.4C83.5548 13.6891 83.8908 13.9078 84.2736 14.0563C84.6642 14.2047 85.0783 14.2789 85.5158 14.2789C85.9533 14.2789 86.3634 14.1852 86.7462 13.9977C87.1369 13.8024 87.4767 13.5485 87.7658 13.236C88.0548 12.9156 88.2814 12.5524 88.4455 12.1461C88.6173 11.7321 88.7033 11.3063 88.7033 10.8688ZM98.0506 5.48987C98.0506 4.79456 98.1834 4.14221 98.4491 3.53284C98.7147 2.92346 99.0741 2.39221 99.5272 1.93909C99.9881 1.47815 100.523 1.11487 101.133 0.849243C101.742 0.583618 102.394 0.450806 103.09 0.450806H110.801V3.81409H103.09C102.855 3.81409 102.637 3.85706 102.433 3.94299C102.23 4.02893 102.051 4.15002 101.894 4.30627C101.746 4.45471 101.629 4.63049 101.543 4.83362C101.457 5.03674 101.414 5.25549 101.414 5.48987C101.414 5.72424 101.457 5.9469 101.543 6.15784C101.629 6.36096 101.746 6.54065 101.894 6.6969C102.051 6.84534 102.23 6.96252 102.433 7.04846C102.637 7.1344 102.855 7.17737 103.09 7.17737H106.453C107.148 7.17737 107.801 7.31018 108.41 7.57581C109.027 7.83362 109.562 8.19299 110.015 8.65393C110.476 9.10706 110.836 9.64221 111.094 10.2594C111.359 10.8688 111.492 11.5211 111.492 12.2164C111.492 12.9117 111.359 13.5641 111.094 14.1735C110.836 14.7828 110.476 15.318 110.015 15.7789C109.562 16.2321 109.027 16.5914 108.41 16.8571C107.801 17.1227 107.148 17.2555 106.453 17.2555H98.9881V13.8922H106.453C106.687 13.8922 106.906 13.8492 107.109 13.7633C107.312 13.6774 107.488 13.5602 107.637 13.4117C107.793 13.2555 107.914 13.0758 108 12.8727C108.086 12.6696 108.129 12.4508 108.129 12.2164C108.129 11.9821 108.086 11.7633 108 11.5602C107.914 11.3571 107.793 11.1813 107.637 11.0328C107.488 10.8766 107.312 10.7555 107.109 10.6696C106.906 10.5836 106.687 10.5406 106.453 10.5406H103.09C102.394 10.5406 101.742 10.4078 101.133 10.1422C100.523 9.87659 99.9881 9.51721 99.5272 9.06409C99.0741 8.60315 98.7147 8.06799 98.4491 7.45862C98.1834 6.84143 98.0506 6.18518 98.0506 5.48987ZM129.839 17.2555H129.066L127.824 15.5328C127.519 15.8063 127.195 16.0641 126.851 16.3063C126.515 16.5406 126.16 16.7477 125.785 16.9274C125.41 17.0992 125.023 17.236 124.625 17.3375C124.234 17.4391 123.835 17.4899 123.429 17.4899C122.546 17.4899 121.714 17.3414 120.933 17.0446C120.16 16.7477 119.48 16.318 118.894 15.7555C118.316 15.1852 117.859 14.4899 117.523 13.6696C117.187 12.8492 117.019 11.9156 117.019 10.8688C117.019 9.89221 117.187 8.99768 117.523 8.18518C117.859 7.36487 118.316 6.66174 118.894 6.07581C119.48 5.48987 120.16 5.03674 120.933 4.71643C121.714 4.38831 122.546 4.22424 123.429 4.22424C123.835 4.22424 124.238 4.27502 124.636 4.37659C125.035 4.47815 125.421 4.61877 125.796 4.79846C126.171 4.97815 126.527 5.18909 126.863 5.43127C127.207 5.67346 127.527 5.93518 127.824 6.21643L129.066 4.72815H129.839V17.2555ZM126.617 10.8688C126.617 10.4313 126.531 10.0094 126.359 9.60315C126.195 9.18909 125.968 8.82581 125.679 8.51331C125.39 8.19299 125.05 7.93909 124.66 7.75159C124.277 7.55627 123.867 7.45862 123.429 7.45862C122.992 7.45862 122.578 7.53284 122.187 7.68127C121.804 7.82971 121.468 8.04846 121.179 8.33752C120.898 8.62659 120.675 8.98596 120.511 9.41565C120.347 9.83752 120.265 10.3219 120.265 10.8688C120.265 11.4156 120.347 11.9039 120.511 12.3336C120.675 12.7555 120.898 13.111 121.179 13.4C121.468 13.6891 121.804 13.9078 122.187 14.0563C122.578 14.2047 122.992 14.2789 123.429 14.2789C123.867 14.2789 124.277 14.1852 124.66 13.9977C125.05 13.8024 125.39 13.5485 125.679 13.236C125.968 12.9156 126.195 12.5524 126.359 12.1461C126.531 11.7321 126.617 11.3063 126.617 10.8688ZM140.171 17.2555L135.39 4.70471H139.034L141.777 12.5328L144.507 4.70471H148.163L143.382 17.2555H140.171ZM158.319 14.1852C158.444 14.2242 158.569 14.2516 158.694 14.2672C158.819 14.275 158.944 14.2789 159.069 14.2789C159.382 14.2789 159.682 14.236 159.972 14.15C160.261 14.0641 160.53 13.943 160.78 13.7867C161.038 13.6227 161.265 13.4274 161.46 13.2008C161.663 12.9664 161.827 12.7086 161.952 12.4274L164.296 14.7828C163.999 15.2047 163.655 15.5836 163.265 15.9196C162.882 16.2555 162.464 16.5406 162.011 16.775C161.565 17.0094 161.093 17.1852 160.593 17.3024C160.1 17.4274 159.593 17.4899 159.069 17.4899C158.186 17.4899 157.354 17.3258 156.573 16.9977C155.8 16.6696 155.12 16.2125 154.534 15.6266C153.956 15.0406 153.499 14.3453 153.163 13.5406C152.827 12.7281 152.659 11.8375 152.659 10.8688C152.659 9.87659 152.827 8.97034 153.163 8.15002C153.499 7.32971 153.956 6.63049 154.534 6.05237C155.12 5.47424 155.8 5.02502 156.573 4.70471C157.354 4.3844 158.186 4.22424 159.069 4.22424C159.593 4.22424 160.104 4.28674 160.604 4.41174C161.104 4.53674 161.577 4.71643 162.022 4.95081C162.475 5.18518 162.897 5.47424 163.288 5.81799C163.679 6.15393 164.022 6.53284 164.319 6.95471L158.319 14.1852ZM159.96 7.58752C159.811 7.53284 159.663 7.49768 159.515 7.48206C159.374 7.46643 159.225 7.45862 159.069 7.45862C158.632 7.45862 158.218 7.54065 157.827 7.70471C157.444 7.86096 157.108 8.08752 156.819 8.3844C156.538 8.68127 156.315 9.04065 156.151 9.46252C155.987 9.87659 155.905 10.3453 155.905 10.8688C155.905 10.986 155.909 11.1188 155.917 11.2672C155.932 11.4156 155.952 11.568 155.975 11.7242C156.007 11.8727 156.042 12.0172 156.081 12.1578C156.12 12.2985 156.171 12.4235 156.233 12.5328L159.96 7.58752ZM173.456 17.2555H170.256V4.70471H171.03L172.085 6.19299C172.6 5.72424 173.186 5.36487 173.842 5.11487C174.499 4.85706 175.178 4.72815 175.881 4.72815H178.706V7.91565H175.881C175.545 7.91565 175.229 7.97815 174.932 8.10315C174.635 8.22815 174.378 8.40002 174.159 8.61877C173.94 8.83752 173.768 9.09534 173.643 9.39221C173.518 9.68909 173.456 10.0055 173.456 10.3414V17.2555Z" fill="white" fill-opacity="0.89"/>
</svg>
